<svg width="31" height="27" fill="none" xmlns="http://www.w3.org/2000/svg"><path d="M8.9 27c-.3 0-.6-.1-.8-.4-5.4-6.1-6.7-7.5-7-7.9-.7-.9-1.1-2.1-1.1-3.3 0-3 2.4-5.4 5.5-5.4 1.3 0 2.5.5 3.5 1.3 1-.8 2.3-1.3 3.5-1.3 3 0 5.5 2.4 5.5 5.4 0 1.3-.5 2.5-1.3 3.4l-7 7.9c-.2.2-.4.3-.8.3Zm-6-9.5c.3.4 3.5 4 6.1 6.9l6.2-7c.5-.5.7-1.2.7-2 0-1.8-1.5-3.3-3.3-3.3-1 0-2 .5-2.7 1.3-.3.3-.6.4-.9.4-.3 0-.6-.2-.8-.4-.7-.8-1.7-1.3-2.7-1.3-1.8 0-3.3 1.5-3.3 3.3-.1.9.3 1.6.7 2.1-.1 0-.1 0 0 0Z" fill="#000"/><path d="M31 9.5c0 5.2467-4.2533 9.5-9.5 9.5S12 14.7467 12 9.5 16.2533 0 21.5 0 31 4.2533 31 9.5Z" fill="#7DB54F"/><path d="M17.6308 12.26h1.4V7.42l.1-.59-.4.47-1.1.79-.38-.51 2.2-1.7h.36v6.38h1.37V13h-3.55v-.74ZM25.46 7.59c0 .3533-.0667.7167-.2 1.09-.1267.3667-.2967.7367-.51 1.11-.2067.3733-.44.74-.7 1.1-.26.3533-.52.69-.78 1.01l-.49.43v.04l.64-.11h2.18V13h-3.98v-.29c.1467-.1533.3233-.3433.53-.57.2067-.2267.42-.4767.64-.75.2267-.28.4467-.5733.66-.88.22-.3133.4167-.63.59-.95.18-.32.3233-.6367.43-.95.1067-.3133.16-.61.16-.89 0-.3267-.0933-.5967-.28-.81-.1867-.22-.47-.33-.85-.33-.2533 0-.5.0533-.74.16-.24.1-.4467.2167-.62.35l-.33-.57c.2333-.2.51-.3567.83-.47.32-.1133.6633-.17 1.03-.17.2867 0 .54.0433.76.13.22.08.4067.1967.56.35.1533.1533.27.3367.35.55.08.2067.12.4333.12.68Z" fill="#fff"/></svg>